HIERARCHY
ROOT root
{
	OFFSET	0	13.1	24.9
	CHANNELS 6  Xposition Yposition Zposition Xrotation Yrotation Zrotation
	JOINT spine_1
	{
		OFFSET	0	9.99999	0
		CHANNELS 3  Xrotation Yrotation Zrotation
		JOINT spine_2
		{
			OFFSET	0	112	-10
			CHANNELS 3  Xrotation Yrotation Zrotation
			JOINT spine_3
			{
				OFFSET	0	206.5	19.3
				CHANNELS 3  Xrotation Yrotation Zrotation
				JOINT spine_4
				{
					OFFSET	0	110.4	14.6
					CHANNELS 3  Xrotation Yrotation Zrotation
					JOINT neck_1
					{
						OFFSET	0	71.8	-50.3
						CHANNELS 3  Xrotation Yrotation Zrotation
						JOINT neck_2
						{
							OFFSET	0	86.2	-25.8
							CHANNELS 3  Xrotation Yrotation Zrotation
							JOINT head_ee
							{
								OFFSET	0	179.8	-8.7
								CHANNELS 3  Xrotation Yrotation Zrotation
								End Site
								{
									OFFSET	1	0	0
								}
							}
						}
					}
					JOINT left_clavicle
					{
						OFFSET	-43.2	22.4	-70.8
						CHANNELS 3  Xrotation Yrotation Zrotation
						JOINT left_shoulder
						{
							OFFSET	-93.9	-5.79999	48.7
							CHANNELS 3  Xrotation Yrotation Zrotation
							JOINT left_elbow
							{
								OFFSET	-291.4	-30.8	15.2
								CHANNELS 3  Xrotation Yrotation Zrotation
								JOINT left_lowarm_twist
								{
									OFFSET	-110.7	-3.89999	13.6
									CHANNELS 3  Xrotation Yrotation Zrotation
									JOINT left_hand
									{
										OFFSET	-110.7	-3.89999	13.6
										CHANNELS 3  Xrotation Yrotation Zrotation
										JOINT left_ee
										{
											OFFSET	-80.8	-5.10001	12.1
											CHANNELS 3  Xrotation Yrotation Zrotation
											End Site
											{
												OFFSET	1	0	0
											}
										}
									}
								}
							}
						}
					}
					JOINT right_clavicle
					{
						OFFSET	43.2	22.4	-70.8
						CHANNELS 3  Xrotation Yrotation Zrotation
						JOINT right_shoulder
						{
							OFFSET	93.9	-5.79999	48.7
							CHANNELS 3  Xrotation Yrotation Zrotation
							JOINT right_elbow
							{
								OFFSET	291.4	-30.8	15.2
								CHANNELS 3  Xrotation Yrotation Zrotation
								JOINT right_lowarm_twist
								{
									OFFSET	110.7	-3.89999	13.6
									CHANNELS 3  Xrotation Yrotation Zrotation
									JOINT right_hand
									{
										OFFSET	110.7	-3.89999	13.6
										CHANNELS 3  Xrotation Yrotation Zrotation
										JOINT right_ee
										{
											OFFSET	80.8	-5.10001	12.1
											CHANNELS 3  Xrotation Yrotation Zrotation
											End Site
											{
												OFFSET	1	0	0
											}
										}
									}
								}
							}
						}
					}
				}
			}
		}
	}
	JOINT left_hip
	{
		OFFSET	-82.8	-127.5	0.300001
		CHANNELS 3  Xrotation Yrotation Zrotation
		JOINT left_knee
		{
			OFFSET	-28.2	-396.7	2.2
			CHANNELS 3  Xrotation Yrotation Zrotation
			JOINT left_ankle
			{
				OFFSET	-11.7	-411.3	35.4
				CHANNELS 3  Xrotation Yrotation Zrotation
				JOINT left_toes
				{
					OFFSET	0	-60	-88.6
					CHANNELS 3  Xrotation Yrotation Zrotation
					JOINT left_foot_ee
					{
						OFFSET	-22.5	-16.5	-42.2
						CHANNELS 3  Xrotation Yrotation Zrotation
						End Site
						{
							OFFSET	1	0	0
						}
					}
				}
			}
		}
	}
	JOINT right_hip
	{
		OFFSET	82.8	-127.5	0.300001
		CHANNELS 3  Xrotation Yrotation Zrotation
		JOINT right_knee
		{
			OFFSET	28.2	-396.7	2.2
			CHANNELS 3  Xrotation Yrotation Zrotation
			JOINT right_ankle
			{
				OFFSET	11.7	-411.3	35.4
				CHANNELS 3  Xrotation Yrotation Zrotation
				JOINT right_toes
				{
					OFFSET	0	-60	-88.6
					CHANNELS 3  Xrotation Yrotation Zrotation
					JOINT right_foot_ee
					{
						OFFSET	22.5	-16.5	-42.2
						CHANNELS 3  Xrotation Yrotation Zrotation
						End Site
						{
							OFFSET	1	0	0
						}
					}
				}
			}
		}
	}
}
MOTION
Frames: 11
Frame Time: 0.02
1372.05 701.618 -1475.22 104.643054815 86.3883794559 -102.580220677 -2.86546 -0.490101 -1.03213 -2.86497 -0.423434 -1.06122 -2.85612 -0.134609 -1.13462 -2.85778 -0.3121 -1.09913 -8.15531 -4.41149 -0.536761 -8.16226 -7.86139 -1.50224 -0.0 0.0 -0.0 4.80551 -8.42568 8.87771 14.348 -25.0984 63.925 1.7056 -40.1912 0.624053 -44.9177 -3.48868 4.39106 4.55192 17.7734 37.9564 -0.0 0.0 -0.0 3.21532 23.5841 -4.23496 -15.1814 2.07051 -70.5574 0.334639 9.41255 -0.0275494 29.7883 -0.0728507 3.76198 -0.7485 -12.9197 -0.603444 0.0 0.0 0.0 -20.5822 1.79868 4.66039 -12.6787 0.311018 1.91691 21.2141 -27.3194 -3.48466 -36.3043 0.0 0.0 -0.0 0.0 -0.0 27.3121 -14.8282 -2.97423 -14.2824 -0.319922 -2.16279 -21.5325 17.6373 -3.61296 22.1688 -0.0 -0.0 0.0 0.0 0.0 
1349.53357853 705.013 -1474.31231665 110.641574283 86.5951672111 -108.708439285 -2.90387 -0.413807 -0.926251 -2.90346 -0.354032 -0.950702 -2.89679 -0.0954175 -1.00998 -2.89812 -0.25372 -0.982239 -8.43241 -3.65735 -1.39533 -8.43322 -5.86191 -2.19709 -0.0 0.0 -0.0 4.36338 -9.16516 7.91604 13.3846 -23.6689 65.8213 1.38673 -34.485 0.43041 -43.2522 -3.30349 4.28433 4.97402 17.0321 41.2826 -0.0 0.0 -0.0 3.51667 26.4202 -4.59758 -13.4385 2.25827 -70.0122 0.265929 7.50473 -0.0174409 29.6452 -0.077184 3.74422 0.257974 -11.4398 -6.37021 0.0 0.0 0.0 -15.688 0.95815 3.53029 -23.6933 0.233537 3.60258 12.3854 -27.2713 -2.12975 -31.3517 0.0 0.0 -0.0 0.0 -0.0 26.6954 -15.453 -2.99122 -15.6462 -0.322077 -2.37203 -18.6205 20.7365 -3.21324 20.7308 -0.0 -0.0 0.0 0.0 0.0 
1349.52823641 705.013 -1474.45626601 104.675312926 86.706417935 -102.731991479 -2.90387 -0.413807 -0.926251 -2.90346 -0.354032 -0.950702 -2.89679 -0.0954175 -1.00998 -2.89812 -0.25372 -0.982239 -8.43241 -3.65735 -1.39533 -8.43322 -5.86191 -2.19709 -0.0 0.0 -0.0 4.36338 -9.16516 7.91604 13.3846 -23.6689 65.8213 1.38673 -34.485 0.43041 -43.2522 -3.30349 4.28433 4.97402 17.0321 41.2826 -0.0 0.0 -0.0 3.51667 26.4202 -4.59758 -13.4385 2.25827 -70.0122 0.265929 7.50473 -0.0174409 29.6452 -0.077184 3.74422 0.257974 -11.4398 -6.37021 0.0 0.0 0.0 -15.688 0.95815 3.53029 -23.6933 0.233537 3.60258 12.3854 -27.2713 -2.12975 -31.3517 0.0 0.0 -0.0 0.0 -0.0 26.6954 -15.453 -2.99122 -15.6462 -0.322077 -2.37203 -18.6205 20.7365 -3.21324 20.7308 -0.0 -0.0 0.0 0.0 0.0 
1320.91539912 711.023 -1473.25752249 115.779592674 85.6612454159 -114.663697728 -3.01085 -0.410871 -0.712558 -3.01064 -0.364697 -0.737257 -3.00543 -0.159533 -0.806905 -3.00623 -0.284962 -0.771587 -7.81625 -4.26515 -1.98877 -7.81101 -6.54221 -2.88874 -0.0 0.0 -0.0 4.54283 -6.622 8.44351 10.9615 -25.5088 66.1454 1.13592 -29.3657 0.297649 -42.3214 -3.20136 4.22235 4.91965 15.4832 40.4581 -0.0 0.0 -0.0 3.53601 26.9169 -4.58759 -12.6866 1.93577 -70.0514 0.445179 12.4365 -0.0485057 29.1446 -0.0919987 3.682 -0.124892 -10.1456 -3.40053 0.0 0.0 0.0 -14.6157 2.453 3.80669 -29.6745 0.056395 4.50301 9.84151 -18.1461 -1.55757 -30.0291 0.0 0.0 -0.0 0.0 -0.0 24.5436 -15.7891 -2.16656 -15.671 -0.32207 -2.37583 -18.2262 22.7863 -3.21165 24.8661 -0.0 -0.0 0.0 0.0 0.0 
1320.90144476 711.023 -1473.66307305 110.147811906 85.8387244843 -109.016419652 -3.01085 -0.410871 -0.712558 -3.01064 -0.364697 -0.737257 -3.00543 -0.159533 -0.806905 -3.00623 -0.284962 -0.771587 -7.81625 -4.26515 -1.98877 -7.81101 -6.54221 -2.88874 -0.0 0.0 -0.0 4.54283 -6.622 8.44351 10.9615 -25.5088 66.1454 1.13592 -29.3657 0.297649 -42.3214 -3.20136 4.22235 4.91965 15.4832 40.4581 -0.0 0.0 -0.0 3.53601 26.9169 -4.58759 -12.6866 1.93577 -70.0514 0.445179 12.4365 -0.0485057 29.1446 -0.0919987 3.682 -0.124892 -10.1456 -3.40053 0.0 0.0 0.0 -14.6157 2.453 3.80669 -29.6745 0.056395 4.50301 9.84151 -18.1461 -1.55757 -30.0291 0.0 0.0 -0.0 0.0 -0.0 24.5436 -15.7891 -2.16656 -15.671 -0.32207 -2.37583 -18.2262 22.7863 -3.21165 24.8661 -0.0 -0.0 0.0 0.0 0.0 
1320.88667622 711.023 -1474.26447667 101.020827388 86.0202627301 -99.8664629734 -3.01085 -0.410871 -0.712558 -3.01064 -0.364697 -0.737257 -3.00543 -0.159533 -0.806905 -3.00623 -0.284962 -0.771587 -7.81625 -4.26515 -1.98877 -7.81101 -6.54221 -2.88874 -0.0 0.0 -0.0 4.54283 -6.622 8.44351 10.9615 -25.5088 66.1454 1.13592 -29.3657 0.297649 -42.3214 -3.20136 4.22235 4.91965 15.4832 40.4581 -0.0 0.0 -0.0 3.53601 26.9169 -4.58759 -12.6866 1.93577 -70.0514 0.445179 12.4365 -0.0485057 29.1446 -0.0919987 3.682 -0.124892 -10.1456 -3.40053 0.0 0.0 0.0 -14.6157 2.453 3.80669 -29.6745 0.056395 4.50301 9.84151 -18.1461 -1.55757 -30.0291 0.0 0.0 -0.0 0.0 -0.0 24.5436 -15.7891 -2.16656 -15.671 -0.32207 -2.37583 -18.2262 22.7863 -3.21165 24.8661 -0.0 -0.0 0.0 0.0 0.0 
1254.17172314 712.965 -1471.14683848 130.301019816 82.8980750256 -128.57396223 -2.79182 -0.319852 -0.212086 -2.79185 -0.305708 -0.232009 -2.79057 -0.235652 -0.302908 -2.79059 -0.280534 -0.26189 -12.0014 -4.75489 -4.93089 -11.9518 -5.84108 -6.06781 -0.0 0.0 -0.0 2.81493 -3.28922 5.18499 6.09504 -26.3004 70.2503 0.659781 -18.0993 0.105086 -41.2032 -3.08003 4.14573 5.85737 12.5336 48.2637 -0.0 0.0 -0.0 4.33644 27.8897 -6.22233 -4.24547 2.89753 -67.1784 1.00928 26.5629 -0.238244 30.8494 -0.0393208 3.89337 0.156912 -9.2618 -4.85505 0.0 0.0 0.0 -8.35568 -2.81123 2.54154 -45.6766 -0.86682 6.77395 8.68881 -6.83911 -1.2831 -35.7139 0.0 0.0 -0.0 0.0 -0.0 13.0531 -12.3247 -6.33281 -3.14832 -0.116763 -0.468999 -14.7306 24.8443 -2.64991 27.1131 -0.0 -0.0 0.0 0.0 0.0 
1218.97777391 717.118 -1466.28518967 126.612446079 80.8674857709 -125.511627283 -3.25322 -0.36384 0.0800098 -3.25329 -0.368194 0.0566953 -3.25376 -0.37004 -0.0430293 -3.25357 -0.372191 0.0159524 -11.9916 -5.29744 -6.06808 -11.9087 -6.1357 -7.3083 -0.0 0.0 -0.0 2.80394 1.01032 5.47307 2.36452 -25.0499 69.7019 0.543498 -15.0688 0.0718853 -41.604 -3.12335 4.17347 6.07027 10.2614 49.6923 -0.0 0.0 -0.0 4.58264 28.5819 -6.68264 -3.09369 1.28073 -68.1502 1.08598 28.2777 -0.273569 29.991 -0.0666336 3.78713 0.178779 -8.00775 -4.49137 0.0 0.0 0.0 -6.48058 -3.6041 2.28576 -53.1027 -1.50299 7.72317 11.7747 -1.47582 -1.68498 -34.1512 0.0 0.0 -0.0 0.0 -0.0 6.54639 -10.1989 -6.7123 0.209717 0.0086924 0.0310089 -9.19634 24.1262 -1.62952 26.4329 -0.0 -0.0 0.0 0.0 0.0 
1218.75857702 717.118 -1471.65953978 115.207873021 81.9052240892 -113.978293404 -3.25322 -0.36384 0.0800098 -3.25329 -0.368194 0.0566953 -3.25376 -0.37004 -0.0430293 -3.25357 -0.372191 0.0159524 -11.9916 -5.29744 -6.06808 -11.9087 -6.1357 -7.3083 -0.0 0.0 -0.0 2.80394 1.01032 5.47307 2.36452 -25.0499 69.7019 0.543498 -15.0688 0.0718853 -41.604 -3.12335 4.17347 6.07027 10.2614 49.6923 -0.0 0.0 -0.0 4.58264 28.5819 -6.68264 -3.09369 1.28073 -68.1502 1.08598 28.2777 -0.273569 29.991 -0.0666336 3.78713 0.178779 -8.00775 -4.49137 0.0 0.0 0.0 -6.48058 -3.6041 2.28576 -53.1027 -1.50299 7.72317 11.7747 -1.47582 -1.68498 -34.1512 0.0 0.0 -0.0 0.0 -0.0 6.54639 -10.1989 -6.7123 0.209717 0.0086924 0.0310089 -9.19634 24.1262 -1.62952 26.4329 -0.0 -0.0 0.0 0.0 0.0 
1190.20341819 722.811 -1467.32839269 103.322238334 81.7267713939 -102.549710542 -3.44619 -0.0455074 0.285434 -3.44614 -0.063578 0.28196 -3.44642 -0.136969 0.254525 -3.4465 -0.0950525 0.272962 -12.1797 -5.12551 -5.95962 -12.0995 -5.90385 -7.16517 -0.0 0.0 -0.0 2.52747 4.37763 5.18339 0.449849 -23.1707 70.1154 0.472621 -13.1771 0.0545887 -40.5947 -3.01463 4.10305 6.19797 8.16072 50.2448 -0.0 0.0 -0.0 4.80769 28.6173 -7.1677 -2.53391 1.11313 -67.392 1.25372 31.8413 -0.357633 29.4746 -0.0822952 3.72303 0.0771379 -8.42182 -3.99977 0.0 0.0 0.0 -2.98405 -3.89934 2.67057 -59.1429 -2.10815 8.43034 12.5555 2.14391 -1.77667 -32.5458 0.0 0.0 -0.0 0.0 -0.0 2.19339 -7.48923 -7.21336 3.57416 0.163599 0.523916 -3.40995 22.6734 -0.587889 25.5611 -0.0 -0.0 0.0 0.0 0.0 
1159.85124107 723.674 -1476.45714655 87.2876425406 80.0772042005 -85.7939741289 -3.63573 0.220343 0.509756 -3.63561 0.18746 0.522743 -3.63362 0.0383747 0.554011 -3.63403 0.125388 0.540999 -11.1454 -4.59377 -5.08109 -11.0867 -5.34163 -6.13153 -0.0 0.0 -0.0 2.10578 4.25193 4.39493 -2.33952 -21.8912 69.8898 0.276901 -7.81061 0.018903 -41.1389 -3.0731 4.14125 6.33617 5.76341 50.7024 -0.0 0.0 -0.0 5.94641 28.698 -9.63649 -0.772601 1.20397 -66.9328 1.48278 36.296 -0.486049 29.437 -0.0834118 3.71836 -0.218859 -9.23837 -2.42337 0.0 0.0 0.0 0.254155 -4.62759 0.971717 -66.6408 -2.9581 9.21437 16.0022 7.95324 -2.22343 -29.1325 0.0 0.0 -0.0 0.0 -0.0 -3.36975 -2.37096 -8.6523 5.83056 0.283623 0.849138 1.19148 22.723 0.203011 24.1936 -0.0 -0.0 0.0 0.0 0.0 
